<svg width="37" height="37" viewBox="0 0 37 37" fill="none" xmlns="http://www.w3.org/2000/svg">
<path d="M33.3229 30.893L30.4359 10.6777C30.3201 9.88461 29.9235 9.15936 29.3184 8.63381C28.7132 8.10826 27.9395 7.8173 27.138 7.8138H24.4303L23.8864 6.18223C22.1702 1.04301 14.8316 1.03763 13.1135 6.1823L12.5696 7.8138H9.86191C9.06039 7.8173 8.28672 8.10826 7.68154 8.63381C7.07636 9.15936 6.67984 9.88461 6.56405 10.6777L3.67699 30.893C3.61232 31.3652 3.64912 31.8459 3.78492 32.3028C3.92072 32.7597 4.1524 33.1824 4.46451 33.5427C4.77662 33.903 5.16197 34.1926 5.59486 34.3921C6.02775 34.5917 6.49822 34.6966 6.97488 34.6999L30.0251 34.7C30.5017 34.6966 30.9722 34.5917 31.4051 34.3921C31.8379 34.1925 32.2233 33.903 32.5354 33.5427C32.8475 33.1824 33.0792 32.7597 33.215 32.3028C33.3508 31.8459 33.3876 31.3652 33.3229 30.893ZM14.2128 6.54671C15.5481 2.46123 21.4526 2.46211 22.7871 6.54678L23.2095 7.81378H13.7904L14.2128 6.54671ZM18.5 29.2036C16.4294 29.2004 14.4445 28.3765 12.9804 26.9124C11.5163 25.4483 10.6924 23.4634 10.6893 21.3929C11.1268 11.0295 25.8747 11.0325 26.3107 21.3929C26.3075 23.4635 25.4836 25.4483 24.0195 26.9124C22.5554 28.3765 20.5705 29.2004 18.5 29.2036Z" fill="#008C44"/>
<path d="M18.5 14.7393C16.736 14.7415 15.045 15.4432 13.7977 16.6905C12.5504 17.9378 11.8486 19.6288 11.8464 21.3928C12.2129 30.2195 24.7885 30.2169 25.1536 21.3927C25.1513 19.6288 24.4496 17.9377 23.2023 16.6904C21.955 15.4432 20.2639 14.7415 18.5 14.7393ZM17.0709 18.2569C17.0562 18.0603 17.0823 17.8627 17.1474 17.6766C17.2126 17.4905 17.3154 17.3198 17.4496 17.1752C17.5837 17.0307 17.7462 16.9154 17.927 16.8365C18.1077 16.7577 18.3028 16.717 18.5 16.717C18.6972 16.717 18.8923 16.7577 19.073 16.8365C19.2538 16.9154 19.4163 17.0307 19.5505 17.1753C19.6846 17.3198 19.7874 17.4905 19.8526 17.6766C19.9177 17.8628 19.9438 18.0603 19.929 18.257V22.1623C19.9438 22.3589 19.9177 22.5565 19.8526 22.7426C19.7874 22.9288 19.6846 23.0994 19.5504 23.244C19.4163 23.3885 19.2538 23.5038 19.073 23.5827C18.8923 23.6615 18.6972 23.7022 18.5 23.7022C18.3028 23.7022 18.1077 23.6615 17.927 23.5827C17.7462 23.5038 17.5837 23.3885 17.4495 23.244C17.3154 23.0994 17.2125 22.9287 17.1474 22.7426C17.0823 22.5565 17.0562 22.3589 17.0709 22.1622V18.2569ZM18.5 26.7214C18.1131 26.717 17.7436 26.5602 17.4716 26.2851C17.1996 26.01 17.0471 25.6387 17.0471 25.2518C17.0471 24.865 17.1997 24.4937 17.4717 24.2186C17.7437 23.9435 18.1132 23.7867 18.5 23.7823C18.8869 23.7867 19.2564 23.9435 19.5284 24.2186C19.8004 24.4937 19.9529 24.865 19.9529 25.2519C19.9529 25.6387 19.8004 26.01 19.5284 26.2851C19.2564 26.5602 18.8868 26.717 18.5 26.7214Z" fill="#008C44"/>
<path d="M18.772 22.1623V18.2569C18.7594 17.7344 18.2407 17.7356 18.2281 18.2569V22.1623C18.2407 22.6849 18.7594 22.6837 18.772 22.1623Z" fill="#008C44"/>
<path d="M18.1876 25.2518C18.1891 25.3337 18.2227 25.4117 18.2811 25.4691C18.3395 25.5264 18.4181 25.5586 18.5 25.5586C18.5819 25.5586 18.6605 25.5265 18.7189 25.4691C18.7774 25.4117 18.8109 25.3337 18.8124 25.2518C18.811 25.17 18.7774 25.092 18.719 25.0346C18.6605 24.9772 18.5819 24.9451 18.5001 24.9451C18.4182 24.9451 18.3396 24.9772 18.2811 25.0346C18.2227 25.0919 18.1891 25.1699 18.1876 25.2518Z" fill="#008C44"/>
</svg>
